<svg version="1.2" xmlns="http://www.w3.org/2000/svg" viewBox="0 0 1037 285" width="1037" height="285"><style>.a{fill:#d81f26}</style><path fill-rule="evenodd" class="a" d="m147.8 264.9c-15.4 2.7-31.1 3.5-47.3 5.7l-49.4-144.9v151.1c-15.5 1.6-29.5 3.8-44.1 5.9v-276.7h41.1l56.2 157v-157h43.5zm85.1-157.6c16.8 0 42.5-0.8 57.9-0.8v43.3c-19.2 0-41.7 0-57.9 0.8v64.3c25.4-1.6 50.8-3.8 76.5-4.6v41.6l-119.7 9.5v-255.4h119.7v43.2h-76.5zm237.3-58.1h-44.8v198.9c-14.6 0-29.2 0-43.3 0.6v-199.5h-44.8v-43.2h132.9zm70.3 55.1h59.2v43.3h-59.2v98.1h-42.4v-239.8h120.8v43.3h-78.4zm148.6 103.5c24.6 0.5 49.5 2.4 73.5 3.8v42.7c-38.6-2.5-77.3-4.9-116.7-5.7v-242.7h43.2zm110-201.9h42.5v254.6c-14.1-1.6-28.7-2.4-42.5-3.2zm231.9 0l-54.9 131.6 54.9 145.1c-16.2-2.1-32.4-5.1-48.6-7.8l-31.1-80-31.6 73.5c-15.7-2.7-30.9-3.5-46.5-5.7l55.6-126.7-50.2-130h46.5l28.3 72.7 30.3-72.7z"/></svg>